PathFileType	3	(X/Y/Z)	D:\Jess\Healthy\Labelled\HA28\20251211\SRRun01.trc
DataRate	CameraRate	NumFrames	NumMarkers	Units	OrigDataRate	OrigDataStartFrame	OrigNumFrames
250.0	250.0	4	37	mm	250.0	36250	2501
Frame#	Time	C7			T10			CLAV			LSHO			RSHO			LASIS			RASIS			LPSIS			RPSIS			LILCR			RILCR			LGTR			LTHI			LLTHI			LLEP			LMEP			LPSH			LLSH			LDSH			LLMAL			LMMAL			LTOE			L5TH			LHEE			RGTR			RTHI			RLTHI			RLEP			RMEP			RPSH			RLSH			RDSH			RLMAL			RMMAL			RTOE			R5TH			RHEE			
		X1	Y1	Z1	X2	Y2	Z2	X3	Y3	Z3	X4	Y4	Z4	X5	Y5	Z5	X6	Y6	Z6	X7	Y7	Z7	X8	Y8	Z8	X9	Y9	Z9	X10	Y10	Z10	X11	Y11	Z11	X12	Y12	Z12	X13	Y13	Z13	X14	Y14	Z14	X15	Y15	Z15	X16	Y16	Z16	X17	Y17	Z17	X18	Y18	Z18	X19	Y19	Z19	X20	Y20	Z20	X21	Y21	Z21	X22	Y22	Z22	X23	Y23	Z23	X24	Y24	Z24	X25	Y25	Z25	X26	Y26	Z26	X27	Y27	Z27	X28	Y28	Z28	X29	Y29	Z29	X30	Y30	Z30	X31	Y31	Z31	X32	Y32	Z32	X33	Y33	Z33	X34	Y34	Z34	X35	Y35	Z35	X36	Y36	Z36	X37	Y37	Z37	

1251	144.996	775.4180875764461	1428.501759344545	-585.4936080167146	782.3099089226943	1189.824826528647	-476.0354370694981	799.0101227834573	1333.224989687162	-722.234746555594	637.0489453317755	1404.68790208411	-673.7647426425497	939.4043920791354	1419.372753513808	-631.8174408899514	689.8023364199354	937.4842699934577	-661.7946004083954	921.683529138065	956.9953796050706	-656.2167355844975	785.7411666324537	990.7382843958588	-492.3708394099028	827.1203349454064	993.9480070024375	-491.434866685541	658.3521174252799	1010.005328541622	-605.6457918118124	945.2529249001095	1021.335912565288	-593.9373186470917	628.2177018124188	849.1749395288787	-567.4835750285464	719.0555850978283	692.1614275708718	-638.0272054569539	670.8510397264848	626.2925004582128	-513.8963705621792	690.2234903479762	491.0723256314412	-477.8404059384702	nan	nan	nan	747.7900148268093	393.5138914985596	-490.405861042213	687.4000074887985	334.4903973804527	-370.0774762768175	758.4036870952215	226.906423957793	-382.1492964065337	728.4027100441974	153.0785354504649	-291.9442636199548	nan	nan	nan	754.166669387224	56.46315453988331	-362.4371908977092	719.913836708716	49.60911194297363	-320.917715460401	774.6644903671922	174.6968684370742	-210.513627956838	990.195875477758	865.6968449142748	-600.1176666385151	922.3029084643626	763.3178017730932	-727.2760708177451	967.7809525669552	632.6108726690227	-697.0922397595979	950.4657057332008	514.7069974315096	-720.3979237081446	nan	nan	nan	906.334626207656	433.1181156608256	-748.9607522552778	952.8461639848246	384.1240090575834	-632.4860174515866	905.4050160797182	258.8820194547377	-633.836376589251	910.2001302483685	198.2923742406387	-538.8766226360995	nan	nan	nan	940.0549603805979	93.81124983289422	-620.7702157338939	952.7655983784617	91.10965426239363	-565.33822529073	836.9979231715612	200.0345336383534	-479.358871957413	
1252	145	775.4756920138561	1431.102365741183	-585.4850067827784	780.5719890468539	1192.29589164149	-476.8977567361088	800.4314634697901	1336.936325534746	-722.2128476781378	638.1605307504552	1408.15223880421	-675.1118885596982	939.6038392915525	1422.290847766773	-629.8938837514607	690.2378380146168	939.5933610073921	-663.2549505852367	921.4154481514105	960.6754384380017	-656.0944697949741	784.9359649191699	994.0151254395205	-493.6635355207823	826.2810160934565	997.3405931564298	-492.4030490946492	658.5110299934646	1012.827481426177	-608.4359873305923	944.5873205707695	1025.118491245917	-594.0268949077143	628.1987689533813	851.9893735121935	-568.4832725880068	719.1133660709236	693.9222537656996	-635.982949937016	670.7417260779199	630.2364736499446	-510.1410492835345	689.745836923141	495.6838048547015	-471.3355521984782	nan	nan	nan	747.2434484129183	397.8540853873996	-483.7540741278045	686.9482675811893	338.7475286161282	-363.5558792196399	757.3625505568301	230.5698705569069	-376.7065664347556	727.7983836432942	156.1675287745377	-286.7989860879547	nan	nan	nan	753.7128960338457	57.00054054019544	-354.5407413652682	719.7396733208227	51.39110047379186	-312.7800360488571	774.0194962481686	180.2434061370973	-206.371192754436	990.2372576540783	869.8913442010114	-600.4204280937976	921.7262829921477	768.0887130209361	-727.3377199147834	966.3475421416462	636.3134757899987	-697.3215082868301	948.9686302112354	517.6016607408421	-721.285251364059	nan	nan	nan	904.6939621939473	436.7999036462556	-752.3216153676804	951.177545993301	383.6080787129722	-637.6789111993789	903.739470336533	258.4155501261736	-643.5195052088152	908.517539086266	194.3089201763518	-550.842889831333	nan	nan	nan	938.2199098955605	92.74086888562201	-636.5112915210015	950.8528839635288	88.00859035978692	-581.1628304369248	835.3270840727694	193.9965385299305	-491.2982311350589	
1253	145.004	775.5427028040366	1433.57071344503	-585.4597236874495	778.871109110897	1194.641765943702	-477.7757456517118	801.8212289645423	1340.534223377632	-722.1595128674425	639.2826995810562	1411.50194671744	-676.4129402999442	939.7714455786246	1425.073742555113	-628.0118981705034	690.6891216820864	941.56956214664	-664.7167299180479	921.1099017134826	964.2526417042951	-656.0393639258821	784.1371200003526	997.2398956764065	-495.0086649838271	825.444334860443	1000.669528207333	-493.4292215771137	658.6740229890144	1015.49953691805	-611.2011762803407	943.8979608595831	1028.81117889485	-594.2102725226633	628.1873776816076	854.7061416817426	-569.5168494216841	719.2381017259269	695.63547814477	-633.9914230627357	670.6174055004554	634.1660870592905	-506.5781974224765	689.25036570466	500.3138043094048	-465.0161635459993	nan	nan	nan	746.756418632516	402.2284508165795	-477.3476329799855	686.5467796949466	343.0116145435528	-357.2674697881816	756.3425585955496	234.2485349010184	-371.4765357587255	727.1987883707865	159.3253884373359	-281.8346620566719	nan	nan	nan	753.2494598608475	57.61884017715465	-346.790802985076	719.5819338163598	53.34329853897051	-304.7941829222604	773.3877883139673	185.8421985549885	-202.4751562437302	990.2794104035996	874.0335976197567	-600.8118133863343	921.1273786433143	772.6718987372557	-727.4163680912797	964.9169255558487	639.8841340891222	-697.4074608390542	947.4897791129818	520.25915004846	-721.9414830135079	nan	nan	nan	903.0984707634032	440.3066824804916	-755.4345897064652	949.5472379607515	382.9782870173146	-642.797497413795	902.0894012524126	258.0092300886997	-653.1410797137368	906.8548105722064	190.4701311169833	-562.8960508938552	nan	nan	nan	936.3015769111901	91.85209288364226	-652.2029448567492	948.8659063395444	85.12517415404106	-597.0006821178985	833.702050520749	188.1973090527048	-503.373965054155	
1254	145.008	775.6155214403915	1435.896806239239	-585.4173852155644	777.2082150552217	1196.852910540768	-478.6633059309889	803.1778877068569	1344.003374173137	-722.0749371893453	640.4119993447075	1414.724729952372	-677.6696208161281	939.908951497933	1427.709203530668	-626.1724613116037	691.1561770120945	943.4001596917782	-666.1702628722613	920.7746918901518	967.7062731899711	-656.0513387799155	783.3454140155003	1000.400805223933	-496.3955360192373	824.6112124340597	1003.92042179585	-494.5033725104376	658.8389633157304	1018.006517125258	-613.9202788047551	943.1933189834621	1032.391269858035	-594.4765014581776	628.1839974675056	857.3121229961012	-570.5797192824756	719.4360458013829	697.2845987867456	-632.048075429094	670.4754780410321	638.0593693842011	-503.2083487636467	688.7351669455696	504.9302438104673	-458.909405282981	nan	nan	nan	746.3242619418492	406.6062740734321	-471.2073945332897	686.1868593798174	347.2641675722059	-351.2265243549552	755.3509021434502	237.9257873427052	-366.4452698240713	726.6038123672807	162.5478103910748	-277.0288116833192	nan	nan	nan	752.7804795559638	58.32908065539546	-339.1798989190994	719.4432093121854	55.46510113886313	-296.9563496284344	772.7647179015008	191.4741369702276	-198.7930911681134	990.3253716991152	878.1036333908071	-601.2838280476035	920.5082214675017	777.0405248885791	-727.516861773719	963.4973973112651	643.3080920103627	-697.3540763279098	946.0303134298676	522.6710753460181	-722.3778141054677	nan	nan	nan	901.5508592664295	443.6270349740777	-758.305413430022	947.9599903895017	382.2410465128671	-647.8416799421699	900.4566021537814	257.6702732276989	-662.6833492547871	905.2155038296099	186.796599654982	-575.0099591830457	nan	nan	nan	934.2938947811398	91.14393850967882	-667.8107098882826	946.8007550569072	82.46714474297849	-612.8132747604026	832.1293108841484	182.6708917600957	-515.5497024155709	
